<mxGraphModel dx="1116" dy="579" grid="1" gridSize="8" guides="1" tooltips="1" connect="1" arrows="1" fold="1" page="1" pageScale="1" pageWidth="1169" pageHeight="827" background="#ffffff"><root><MiscDiagram modelType="MiscDiagram" lastModifiedUserId="dbush@ibm.com" description="" lastModified="2022-01-26T00:14:24Z" _id="miscdiagram_B1j_SJlOt" label="DO Automation Document Processing on OCP" id="0"><mxCell/></MiscDiagram><mxCell id="1" parent="0"/><UserObject placeholders="1" label="64 Gi FS Storage" Icon-Name="block-storage--alt" id="miscdiagram_B1j_SJlOt_23dyR8UQqmtg"><mxCell style="shape=mxgraph.ibm2mondrian.base;shapeType=ln;shapeLayout=collapsed;colorFamily=cyan;colorBackground=noColor:noColor;html=1;whiteSpace=wrap;metaEdit=1;strokeWidth=1;collapsible=0;recursiveResize=0;expand=0;fontFamily=IBM Plex Sans;fontColor=#000000;fontSize=14;image=;verticalAlign=top;align=center;spacing=0;spacingLeft=0;spacingRight=0;spacingTop=0;spacingBottom=0;verticalLabelPosition=bottom;labelPosition=center;positionText=bottom;container=1;labelWidth=71;" vertex="1" parent="1"><mxGeometry x="208" y="696" width="48" height="48" as="geometry"/></mxCell></UserObject><UserObject placeholders="1" label="MongoDB" Icon-Name="default" id="miscdiagram_B1j_SJlOt_33dyR8UQeAwW"><mxCell style="shape=mxgraph.ibm2mondrian.base;shapeType=pn;shapeLayout=collapsed;colorFamily=cyan;colorBackground=noColor:noColor;html=1;whiteSpace=wrap;metaEdit=1;strokeWidth=1;collapsible=0;recursiveResize=0;expand=0;fontFamily=IBM Plex Sans;fontColor=#000000;fontSize=14;image=;verticalAlign=top;align=center;spacing=0;spacingLeft=0;spacingRight=0;spacingTop=0;spacingBottom=0;verticalLabelPosition=bottom;labelPosition=center;positionText=bottom;container=1" vertex="1" parent="1"><mxGeometry x="136" y="696" width="48" height="48" as="geometry"/></mxCell></UserObject><UserObject placeholders="1" label="Git Repo" Icon-Name="archive" id="miscdiagram_B1j_SJlOt_43dyR8UQgxDn"><mxCell style="shape=mxgraph.ibm2mondrian.base;shapeType=ln;shapeLayout=collapsed;colorFamily=cyan;colorBackground=noColor:noColor;html=1;whiteSpace=wrap;metaEdit=1;strokeWidth=1;collapsible=0;recursiveResize=0;expand=0;fontFamily=IBM Plex Sans;fontColor=#000000;fontSize=14;image=;verticalAlign=top;align=center;spacing=0;spacingLeft=0;spacingRight=0;spacingTop=0;spacingBottom=0;verticalLabelPosition=bottom;labelPosition=center;positionText=bottom;container=1" vertex="1" parent="1"><mxGeometry x="56" y="696" width="48" height="48" as="geometry"/></mxCell></UserObject><UserObject placeholders="1" label="CA Db2" Icon-Name="data--base" id="miscdiagram_B1j_SJlOt_53dyR8UQ9l7k"><mxCell style="shape=mxgraph.ibm2mondrian.base;shapeType=ln;shapeLayout=collapsed;colorFamily=cyan;colorBackground=noColor:noColor;html=1;whiteSpace=wrap;metaEdit=1;strokeWidth=1;collapsible=0;recursiveResize=0;expand=0;fontFamily=IBM Plex Sans;fontColor=#000000;fontSize=14;image=;verticalAlign=top;align=center;spacing=0;spacingLeft=0;spacingRight=0;spacingTop=0;spacingBottom=0;verticalLabelPosition=bottom;labelPosition=center;positionText=bottom;container=1" vertex="1" parent="1"><mxGeometry x="280" y="696" width="48" height="48" as="geometry"/></mxCell></UserObject><mxCell id="miscdiagram_B1j_SJlOt_63dyR8UQrt6Q" style="edgeStyle=orthogonalEdgeStyle;rounded=1;orthogonalLoop=1;jettySize=auto;html=1;jumpStyle=arc;jumpSize=8;entryX=0.5;entryY=0;entryDx=0;entryDy=0;entryPerimeter=0;" edge="1" parent="1" source="miscdiagram_B1j_SJlOt_273dyR8UQ8cT9" target="miscdiagram_B1j_SJlOt_53dyR8UQ9l7k"><mxGeometry relative="1" as="geometry"/></mxCell><mxCell id="miscdiagram_B1j_SJlOt_73dyR8UQfxiX" style="edgeStyle=orthogonalEdgeStyle;rounded=1;orthogonalLoop=1;jettySize=auto;html=1;jumpStyle=arc;jumpSize=8;entryX=0.5;entryY=0;entryDx=0;entryDy=0;entryPerimeter=0;" edge="1" parent="1" source="miscdiagram_B1j_SJlOt_263dyR8UQSVPM" target="miscdiagram_B1j_SJlOt_43dyR8UQgxDn"><mxGeometry relative="1" as="geometry"><Array as="points"><mxPoint x="126" y="632"/><mxPoint x="80" y="632"/></Array></mxGeometry></mxCell><mxCell id="miscdiagram_B1j_SJlOt_83dyR8UQIjgu" style="edgeStyle=orthogonalEdgeStyle;rounded=1;orthogonalLoop=1;jettySize=auto;html=1;jumpStyle=arc;jumpSize=8;entryX=0.5;entryY=0;entryDx=0;entryDy=0;entryPerimeter=0;" edge="1" parent="1" source="miscdiagram_B1j_SJlOt_263dyR8UQSVPM" target="miscdiagram_B1j_SJlOt_33dyR8UQeAwW"><mxGeometry relative="1" as="geometry"><Array as="points"><mxPoint x="126" y="632"/><mxPoint x="160" y="632"/></Array></mxGeometry></mxCell><UserObject placeholders="1" label="UMS DB" Icon-Name="data--base" _id="userobject_36P5vDl5987" id="miscdiagram_B1j_SJlOt_93dyR8UQx7J3"><mxCell style="shape=mxgraph.ibm2mondrian.base;shapeType=ln;shapeLayout=collapsed;colorFamily=cyan;colorBackground=noColor:noColor;html=1;whiteSpace=wrap;metaEdit=1;strokeWidth=1;collapsible=0;recursiveResize=0;expand=0;fontFamily=IBM Plex Sans;fontColor=#000000;fontSize=14;image=;verticalAlign=top;align=center;spacing=0;spacingLeft=0;spacingRight=0;spacingTop=0;spacingBottom=0;verticalLabelPosition=bottom;labelPosition=center;positionText=bottom;container=1" vertex="1" parent="1"><mxGeometry x="480" y="696" width="48" height="48" as="geometry"/></mxCell></UserObject><mxCell id="miscdiagram_B1j_SJlOt_103dyR8UQRtig" style="edgeStyle=orthogonalEdgeStyle;rounded=1;orthogonalLoop=1;jettySize=auto;html=1;jumpStyle=arc;jumpSize=8;entryX=0.5;entryY=0;entryDx=0;entryDy=0;entryPerimeter=0;" edge="1" parent="1" source="miscdiagram_B1j_SJlOt_313dyR8UQ7wGu" target="miscdiagram_B1j_SJlOt_93dyR8UQx7J3"><mxGeometry relative="1" as="geometry"><Array as="points"><mxPoint x="414" y="648"/><mxPoint x="504" y="648"/></Array></mxGeometry></mxCell><UserObject placeholders="1" label="LDAP" Icon-Name="data--base" _id="userobject_36P5Kby7Kat" id="miscdiagram_B1j_SJlOt_113dyR8UQoE4f"><mxCell style="shape=mxgraph.ibm2mondrian.base;shapeType=ln;shapeLayout=collapsed;colorFamily=cyan;colorBackground=noColor:noColor;html=1;whiteSpace=wrap;metaEdit=1;strokeWidth=1;collapsible=0;recursiveResize=0;expand=0;fontFamily=IBM Plex Sans;fontColor=#000000;fontSize=14;image=;verticalAlign=top;align=center;spacing=0;spacingLeft=0;spacingRight=0;spacingTop=0;spacingBottom=0;verticalLabelPosition=bottom;labelPosition=center;positionText=bottom;container=1" vertex="1" parent="1"><mxGeometry x="553" y="696" width="48" height="48" as="geometry"/></mxCell></UserObject><mxCell id="miscdiagram_B1j_SJlOt_123dyR8UQhDda" style="edgeStyle=orthogonalEdgeStyle;rounded=1;orthogonalLoop=1;jettySize=auto;html=1;jumpStyle=arc;jumpSize=8;entryX=0.5;entryY=0;entryDx=0;entryDy=0;entryPerimeter=0;" edge="1" parent="1" source="miscdiagram_B1j_SJlOt_313dyR8UQ7wGu" target="miscdiagram_B1j_SJlOt_113dyR8UQoE4f"><mxGeometry relative="1" as="geometry"/></mxCell><mxCell id="miscdiagram_B1j_SJlOt_133dyR8UQdwIB" style="edgeStyle=orthogonalEdgeStyle;rounded=1;orthogonalLoop=1;jettySize=auto;html=1;jumpStyle=arc;jumpSize=8;entryX=0.5;entryY=0;entryDx=0;entryDy=0;entryPerimeter=0;" edge="1" parent="1" source="miscdiagram_B1j_SJlOt_253dyR8UQdbGD" target="miscdiagram_B1j_SJlOt_23dyR8UQqmtg"><mxGeometry relative="1" as="geometry"><Array as="points"><mxPoint x="152" y="416"/><mxPoint x="232" y="416"/></Array></mxGeometry></mxCell><UserObject placeholders="1" label="UMS DB" Icon-Name="data--base" _id="userobject_36PbA5H3Lvp" id="miscdiagram_B1j_SJlOt_143dyR8UQvNq0"><mxCell style="shape=mxgraph.ibm2mondrian.base;shapeType=ln;shapeLayout=collapsed;colorFamily=cyan;colorBackground=noColor:noColor;html=1;whiteSpace=wrap;metaEdit=1;strokeWidth=1;collapsible=0;recursiveResize=0;expand=0;fontFamily=IBM Plex Sans;fontColor=#000000;fontSize=14;image=;verticalAlign=top;align=center;spacing=0;spacingLeft=0;spacingRight=0;spacingTop=0;spacingBottom=0;verticalLabelPosition=bottom;labelPosition=center;positionText=bottom;container=1" vertex="1" parent="1"><mxGeometry x="1008" y="736" width="48" height="48" as="geometry"/></mxCell></UserObject><UserObject placeholders="1" label="LDAP" Icon-Name="data--base" _id="userobject_36PbChgNqlr" id="miscdiagram_B1j_SJlOt_153dyR8UQy11h"><mxCell style="shape=mxgraph.ibm2mondrian.base;shapeType=ln;shapeLayout=collapsed;colorFamily=cyan;colorBackground=noColor:noColor;html=1;whiteSpace=wrap;metaEdit=1;strokeWidth=1;collapsible=0;recursiveResize=0;expand=0;fontFamily=IBM Plex Sans;fontColor=#000000;fontSize=14;image=;verticalAlign=top;align=center;spacing=0;spacingLeft=0;spacingRight=0;spacingTop=0;spacingBottom=0;verticalLabelPosition=bottom;labelPosition=center;positionText=bottom;container=1" vertex="1" parent="1"><mxGeometry x="1104" y="736" width="48" height="48" as="geometry"/></mxCell></UserObject><UserObject placeholders="1" label="CA Db2" Icon-Name="data--base" _id="userobject_36PbEIjMhDf" id="miscdiagram_B1j_SJlOt_163dyR8UQTwJt"><mxCell style="shape=mxgraph.ibm2mondrian.base;shapeType=ln;shapeLayout=collapsed;colorFamily=cyan;colorBackground=noColor:noColor;html=1;whiteSpace=wrap;metaEdit=1;strokeWidth=1;collapsible=0;recursiveResize=0;expand=0;fontFamily=IBM Plex Sans;fontColor=#000000;fontSize=14;image=;verticalAlign=top;align=center;spacing=0;spacingLeft=0;spacingRight=0;spacingTop=0;spacingBottom=0;verticalLabelPosition=bottom;labelPosition=center;positionText=bottom;container=1" vertex="1" parent="1"><mxGeometry x="1264" y="736" width="48" height="48" as="geometry"/></mxCell></UserObject><mxCell id="miscdiagram_B1j_SJlOt_173dyR8UQvVMZ" style="edgeStyle=orthogonalEdgeStyle;rounded=1;orthogonalLoop=1;jettySize=auto;html=1;jumpStyle=arc;jumpSize=8;entryX=0.5;entryY=0;entryDx=0;entryDy=0;entryPerimeter=0;" edge="1" parent="1" source="miscdiagram_B1j_SJlOt_613dyR8UQVZmL" target="miscdiagram_B1j_SJlOt_163dyR8UQTwJt"><mxGeometry relative="1" as="geometry"/></mxCell><mxCell id="miscdiagram_B1j_SJlOt_183dyR8UQrkU1" style="edgeStyle=orthogonalEdgeStyle;rounded=1;orthogonalLoop=1;jettySize=auto;html=1;jumpStyle=arc;jumpSize=8;entryX=0.5;entryY=0;entryDx=0;entryDy=0;entryPerimeter=0;" edge="1" parent="1" source="miscdiagram_B1j_SJlOt_573dyR8UQUmuE" target="miscdiagram_B1j_SJlOt_153dyR8UQy11h"><mxGeometry relative="1" as="geometry"><Array as="points"><mxPoint x="1087" y="672"/><mxPoint x="1128" y="672"/></Array></mxGeometry></mxCell><mxCell id="miscdiagram_B1j_SJlOt_193dyR8UQz0Zk" style="edgeStyle=orthogonalEdgeStyle;rounded=1;orthogonalLoop=1;jettySize=auto;html=1;jumpStyle=arc;jumpSize=8;entryX=0.5;entryY=0;entryDx=0;entryDy=0;entryPerimeter=0;" edge="1" parent="1" source="miscdiagram_B1j_SJlOt_573dyR8UQUmuE" target="miscdiagram_B1j_SJlOt_143dyR8UQvNq0"><mxGeometry relative="1" as="geometry"><Array as="points"><mxPoint x="1087" y="672"/><mxPoint x="1032" y="672"/></Array></mxGeometry></mxCell><UserObject placeholders="1" label="OS Db2" Icon-Name="data--base" _id="userobject_36PcceQ84pQ" id="miscdiagram_B1j_SJlOt_203dyR8UQnikP"><mxCell style="shape=mxgraph.ibm2mondrian.base;shapeType=ln;shapeLayout=collapsed;colorFamily=cyan;colorBackground=noColor:noColor;html=1;whiteSpace=wrap;metaEdit=1;strokeWidth=1;collapsible=0;recursiveResize=0;expand=0;fontFamily=IBM Plex Sans;fontColor=#000000;fontSize=14;image=;verticalAlign=top;align=center;spacing=0;spacingLeft=0;spacingRight=0;spacingTop=0;spacingBottom=0;verticalLabelPosition=bottom;labelPosition=center;positionText=bottom;container=1" vertex="1" parent="1"><mxGeometry x="1428" y="736" width="48" height="48" as="geometry"/></mxCell></UserObject><mxCell id="miscdiagram_B1j_SJlOt_213dyR8UQIoTl" style="edgeStyle=orthogonalEdgeStyle;rounded=1;orthogonalLoop=1;jettySize=auto;html=1;jumpStyle=arc;jumpSize=8;entryX=0.5;entryY=0;entryDx=0;entryDy=0;entryPerimeter=0;" edge="1" parent="1" source="miscdiagram_B1j_SJlOt_603dyR8UQSTKk" target="miscdiagram_B1j_SJlOt_203dyR8UQnikP"><mxGeometry relative="1" as="geometry"/></mxCell><UserObject placeholders="1" label="&lt;span style=&quot;font-family: &amp;#34;ibm plex sans&amp;#34;&quot;&gt;OpenShift 4.7-4.8 Non-Prod Cluster&lt;/span&gt;" Icon-Name="logo--openshift" id="miscdiagram_B1j_SJlOt_223dyR8UQknNh"><mxCell style="shape=mxgraph.ibm2mondrian.base;shapeType=pg;shapeLayout=expanded;colorFamily=green;colorBackground=noColor:noColor;strokeWidth=1;html=1;whiteSpace=wrap;metaEdit=1;collapsible=0;recursiveResize=0;expand=0;fontFamily=IBM Plex Sans SmBld;fontColor=#000000;fontSize=14;image=;verticalAlign=middle;align=left;spacing=0;spacingLeft=16;spacingRight=16;spacingTop=0;spacingBottom=0;container=1" vertex="1" parent="1"><mxGeometry x="16" y="24" width="912" height="584" as="geometry"/></mxCell></UserObject><UserObject placeholders="1" label="Dev Namespace" Icon-Name="border--none" id="miscdiagram_B1j_SJlOt_233dyR8UQaYAk"><mxCell style="shape=mxgraph.ibm2mondrian.base;shapeType=lg;shapeLayout=expanded;colorFamily=green;colorBackground=noColor:noColor;html=1;whiteSpace=wrap;metaEdit=1;strokeWidth=1;collapsible=0;recursiveResize=0;expand=0;fontFamily=IBM Plex Sans;fontColor=#000000;fontSize=14;image=;verticalAlign=middle;align=left;spacing=0;spacingLeft=12;spacingRight=16;spacingTop=0;spacingBottom=0;container=1" vertex="1" parent="miscdiagram_B1j_SJlOt_223dyR8UQknNh"><mxGeometry x="16" y="56" width="880" height="512" as="geometry"/></mxCell></UserObject><UserObject placeholders="1" label="Business Automation Studio" Icon-Name="cube" _id="userobject_36P1Ee38pfG" id="miscdiagram_B1j_SJlOt_243dyR8UQWRlB"><mxCell style="shape=mxgraph.ibm2mondrian.base;shapeType=lg;shapeLayout=expanded;colorFamily=green;colorBackground=noColor:noColor;html=1;whiteSpace=wrap;metaEdit=1;strokeWidth=1;collapsible=0;recursiveResize=0;expand=0;fontFamily=IBM Plex Sans;fontColor=#000000;fontSize=14;image=;verticalAlign=middle;align=left;spacing=0;spacingLeft=12;spacingRight=16;spacingTop=0;spacingBottom=0;container=1" vertex="1" parent="miscdiagram_B1j_SJlOt_233dyR8UQaYAk"><mxGeometry x="18" y="52" width="152" height="64" as="geometry"/></mxCell></UserObject><UserObject placeholders="1" label="Content Designer" Icon-Name="cube" _id="userobject_3667dpUiJf2" id="miscdiagram_B1j_SJlOt_253dyR8UQdbGD"><mxCell style="shape=mxgraph.ibm2mondrian.base;shapeType=lg;shapeLayout=expanded;colorFamily=green;colorBackground=noColor:noColor;html=1;whiteSpace=wrap;metaEdit=1;strokeWidth=1;collapsible=0;recursiveResize=0;expand=0;fontFamily=IBM Plex Sans;fontColor=#000000;fontSize=14;image=;verticalAlign=middle;align=left;spacing=0;spacingLeft=12;spacingRight=16;spacingTop=0;spacingBottom=0;container=1" vertex="1" parent="miscdiagram_B1j_SJlOt_233dyR8UQaYAk"><mxGeometry x="18" y="148" width="152" height="64" as="geometry"/></mxCell></UserObject><UserObject placeholders="1" label="Git Common Gateway" Icon-Name="cube" _id="userobject_3667Aq2Y8bL" id="miscdiagram_B1j_SJlOt_263dyR8UQSVPM"><mxCell style="shape=mxgraph.ibm2mondrian.base;shapeType=lg;shapeLayout=expanded;colorFamily=green;colorBackground=noColor:noColor;html=1;whiteSpace=wrap;metaEdit=1;strokeWidth=1;collapsible=0;recursiveResize=0;expand=0;fontFamily=IBM Plex Sans;fontColor=#000000;fontSize=14;image=;verticalAlign=middle;align=left;spacing=0;spacingLeft=12;spacingRight=16;spacingTop=0;spacingBottom=0;container=1" vertex="1" parent="miscdiagram_B1j_SJlOt_233dyR8UQaYAk"><mxGeometry x="18" y="348" width="152" height="64" as="geometry"/></mxCell></UserObject><UserObject placeholders="1" label="Content Analyzer Service" Icon-Name="cube" _id="userobject_36P25ugMZ5Y" id="miscdiagram_B1j_SJlOt_273dyR8UQ8cT9"><mxCell style="shape=mxgraph.ibm2mondrian.base;shapeType=lg;shapeLayout=expanded;colorFamily=green;colorBackground=noColor:noColor;html=1;whiteSpace=wrap;metaEdit=1;strokeWidth=1;collapsible=0;recursiveResize=0;expand=0;fontFamily=IBM Plex Sans;fontColor=#000000;fontSize=14;image=;verticalAlign=middle;align=left;spacing=0;spacingLeft=12;spacingRight=16;spacingTop=0;spacingBottom=0;container=1" vertex="1" parent="miscdiagram_B1j_SJlOt_233dyR8UQaYAk"><mxGeometry x="198" y="228" width="144" height="64" as="geometry"/></mxCell></UserObject><UserObject placeholders="1" label="Deployment Service" Icon-Name="cube" _id="userobject_3667mdD737Q" id="miscdiagram_B1j_SJlOt_283dyR8UQOgOF"><mxCell style="shape=mxgraph.ibm2mondrian.base;shapeType=lg;shapeLayout=expanded;colorFamily=green;colorBackground=noColor:noColor;html=1;whiteSpace=wrap;metaEdit=1;strokeWidth=1;collapsible=0;recursiveResize=0;expand=0;fontFamily=IBM Plex Sans;fontColor=#000000;fontSize=14;image=;verticalAlign=middle;align=left;spacing=0;spacingLeft=12;spacingRight=16;spacingTop=0;spacingBottom=0;container=1" vertex="1" parent="miscdiagram_B1j_SJlOt_233dyR8UQaYAk"><mxGeometry x="186" y="148" width="144" height="64" as="geometry"/></mxCell></UserObject><UserObject placeholders="1" label="Document Processing Designer" Icon-Name="cube" _id="userobject_36P1QYD0zJA" id="miscdiagram_B1j_SJlOt_293dyR8UQvOCA"><mxCell style="shape=mxgraph.ibm2mondrian.base;shapeType=lg;shapeLayout=expanded;colorFamily=green;colorBackground=noColor:noColor;html=1;whiteSpace=wrap;metaEdit=1;strokeWidth=1;collapsible=0;recursiveResize=0;expand=0;fontFamily=IBM Plex Sans;fontColor=#000000;fontSize=14;image=;verticalAlign=middle;align=left;spacing=0;spacingLeft=12;spacingRight=16;spacingTop=0;spacingBottom=0;container=1" vertex="1" parent="miscdiagram_B1j_SJlOt_233dyR8UQaYAk"><mxGeometry x="186" y="52" width="144" height="64" as="geometry"/></mxCell></UserObject><UserObject placeholders="1" label="UMS Teams UI" Icon-Name="cube" _id="userobject_36P4Vl50sWv" id="miscdiagram_B1j_SJlOt_303dyR8UQFwSX"><mxCell style="shape=mxgraph.ibm2mondrian.base;shapeType=lg;shapeLayout=expanded;colorFamily=green;colorBackground=noColor:noColor;html=1;whiteSpace=wrap;metaEdit=1;strokeWidth=1;collapsible=0;recursiveResize=0;expand=0;fontFamily=IBM Plex Sans;fontColor=#000000;fontSize=14;image=;verticalAlign=middle;align=left;spacing=0;spacingLeft=12;spacingRight=16;spacingTop=0;spacingBottom=0;container=1" vertex="1" parent="miscdiagram_B1j_SJlOt_233dyR8UQaYAk"><mxGeometry x="350" y="52" width="144" height="64" as="geometry"/></mxCell></UserObject><UserObject placeholders="1" label="UMS" Icon-Name="cube" _id="userobject_36OWko64QQ0" id="miscdiagram_B1j_SJlOt_313dyR8UQ7wGu"><mxCell style="shape=mxgraph.ibm2mondrian.base;shapeType=lg;shapeLayout=expanded;colorFamily=green;colorBackground=noColor:noColor;html=1;whiteSpace=wrap;metaEdit=1;strokeWidth=1;collapsible=0;recursiveResize=0;expand=0;fontFamily=IBM Plex Sans;fontColor=#000000;fontSize=14;image=;verticalAlign=middle;align=left;spacing=0;spacingLeft=12;spacingRight=16;spacingTop=0;spacingBottom=0;container=1" vertex="1" parent="miscdiagram_B1j_SJlOt_233dyR8UQaYAk"><mxGeometry x="310" y="348" width="144" height="64" as="geometry"/></mxCell></UserObject><UserObject placeholders="1" label="CPE" Icon-Name="cube" _id="userobject_36P78EL8A8f" id="miscdiagram_B1j_SJlOt_323dyR8UQu4Fc"><mxCell style="shape=mxgraph.ibm2mondrian.base;shapeType=lg;shapeLayout=expanded;colorFamily=green;colorBackground=noColor:noColor;html=1;whiteSpace=wrap;metaEdit=1;strokeWidth=1;collapsible=0;recursiveResize=0;expand=0;fontFamily=IBM Plex Sans;fontColor=#000000;fontSize=14;image=;verticalAlign=middle;align=left;spacing=0;spacingLeft=12;spacingRight=16;spacingTop=0;spacingBottom=0;container=1" vertex="1" parent="miscdiagram_B1j_SJlOt_233dyR8UQaYAk"><mxGeometry x="486" y="308" width="144" height="64" as="geometry"/></mxCell></UserObject><UserObject placeholders="1" label="Application Engine" Icon-Name="cube" _id="userobject_36P65RDvgS0" id="miscdiagram_B1j_SJlOt_333dyR8UQqFrO"><mxCell style="shape=mxgraph.ibm2mondrian.base;shapeType=lg;shapeLayout=expanded;colorFamily=green;colorBackground=noColor:noColor;html=1;whiteSpace=wrap;metaEdit=1;strokeWidth=1;collapsible=0;recursiveResize=0;expand=0;fontFamily=IBM Plex Sans;fontColor=#000000;fontSize=14;image=;verticalAlign=middle;align=left;spacing=0;spacingLeft=12;spacingRight=16;spacingTop=0;spacingBottom=0;container=1" vertex="1" parent="miscdiagram_B1j_SJlOt_233dyR8UQaYAk"><mxGeometry x="526" y="140" width="144" height="64" as="geometry"/></mxCell></UserObject><UserObject placeholders="1" label="Business Automation App Designer" Icon-Name="cube" _id="userobject_36P6hJfFbg5" id="miscdiagram_B1j_SJlOt_343dyR8UQKq7G"><mxCell style="shape=mxgraph.ibm2mondrian.base;shapeType=lg;shapeLayout=expanded;colorFamily=green;colorBackground=noColor:noColor;html=1;whiteSpace=wrap;metaEdit=1;strokeWidth=1;collapsible=0;recursiveResize=0;expand=0;fontFamily=IBM Plex Sans;fontColor=#000000;fontSize=14;image=;verticalAlign=middle;align=left;spacing=0;spacingLeft=12;spacingRight=16;spacingTop=0;spacingBottom=0;container=1" vertex="1" parent="miscdiagram_B1j_SJlOt_233dyR8UQaYAk"><mxGeometry x="510" y="52" width="160" height="64" as="geometry"/></mxCell></UserObject><UserObject placeholders="1" label="ViewOne Service" Icon-Name="cube" _id="userobject_36P6KZM3n5F" id="miscdiagram_B1j_SJlOt_353dyR8UQ52sK"><mxCell style="shape=mxgraph.ibm2mondrian.base;shapeType=lg;shapeLayout=expanded;colorFamily=green;colorBackground=noColor:noColor;html=1;whiteSpace=wrap;metaEdit=1;strokeWidth=1;collapsible=0;recursiveResize=0;expand=0;fontFamily=IBM Plex Sans;fontColor=#000000;fontSize=14;image=;verticalAlign=middle;align=left;spacing=0;spacingLeft=12;spacingRight=16;spacingTop=0;spacingBottom=0;container=1" vertex="1" parent="miscdiagram_B1j_SJlOt_233dyR8UQaYAk"><mxGeometry x="686" y="140" width="144" height="64" as="geometry"/></mxCell></UserObject><UserObject placeholders="1" label="GraphQL" Icon-Name="cube" _id="userobject_36P6XDoOzQz" id="miscdiagram_B1j_SJlOt_363dyR8UQkNWK"><mxCell style="shape=mxgraph.ibm2mondrian.base;shapeType=lg;shapeLayout=expanded;colorFamily=green;colorBackground=noColor:noColor;html=1;whiteSpace=wrap;metaEdit=1;strokeWidth=1;collapsible=0;recursiveResize=0;expand=0;fontFamily=IBM Plex Sans;fontColor=#000000;fontSize=14;image=;verticalAlign=middle;align=left;spacing=0;spacingLeft=12;spacingRight=16;spacingTop=0;spacingBottom=0;container=1" vertex="1" parent="miscdiagram_B1j_SJlOt_233dyR8UQaYAk"><mxGeometry x="670" y="292" width="144" height="64" as="geometry"/></mxCell></UserObject><mxCell id="miscdiagram_B1j_SJlOt_373dyR8UQWdO4" style="edgeStyle=orthogonalEdgeStyle;rounded=1;orthogonalLoop=1;jettySize=auto;html=1;jumpStyle=arc;jumpSize=8;" edge="1" parent="miscdiagram_B1j_SJlOt_233dyR8UQaYAk" source="miscdiagram_B1j_SJlOt_243dyR8UQWRlB" target="miscdiagram_B1j_SJlOt_253dyR8UQdbGD"><mxGeometry relative="1" as="geometry"/></mxCell><mxCell id="miscdiagram_B1j_SJlOt_383dyR8UQiYC1" style="edgeStyle=orthogonalEdgeStyle;rounded=1;orthogonalLoop=1;jettySize=auto;html=1;jumpStyle=arc;jumpSize=8;" edge="1" parent="miscdiagram_B1j_SJlOt_233dyR8UQaYAk" source="miscdiagram_B1j_SJlOt_253dyR8UQdbGD" target="miscdiagram_B1j_SJlOt_263dyR8UQSVPM"><mxGeometry relative="1" as="geometry"/></mxCell><mxCell id="miscdiagram_B1j_SJlOt_393dyR8UQGBuM" style="edgeStyle=orthogonalEdgeStyle;rounded=1;orthogonalLoop=1;jettySize=auto;html=1;jumpStyle=arc;jumpSize=8;" edge="1" parent="miscdiagram_B1j_SJlOt_233dyR8UQaYAk" source="miscdiagram_B1j_SJlOt_283dyR8UQOgOF" target="miscdiagram_B1j_SJlOt_253dyR8UQdbGD"><mxGeometry relative="1" as="geometry"/></mxCell><mxCell id="miscdiagram_B1j_SJlOt_403dyR8UQaDyu" style="edgeStyle=orthogonalEdgeStyle;rounded=1;orthogonalLoop=1;jettySize=auto;html=1;jumpStyle=arc;jumpSize=8;" edge="1" parent="miscdiagram_B1j_SJlOt_233dyR8UQaYAk" source="miscdiagram_B1j_SJlOt_243dyR8UQWRlB" target="miscdiagram_B1j_SJlOt_293dyR8UQvOCA"><mxGeometry relative="1" as="geometry"/></mxCell><mxCell id="miscdiagram_B1j_SJlOt_413dyR8UQjqBR" style="edgeStyle=orthogonalEdgeStyle;rounded=1;orthogonalLoop=1;jettySize=auto;html=1;jumpStyle=arc;jumpSize=8;" edge="1" parent="miscdiagram_B1j_SJlOt_233dyR8UQaYAk" source="miscdiagram_B1j_SJlOt_293dyR8UQvOCA" target="miscdiagram_B1j_SJlOt_283dyR8UQOgOF"><mxGeometry relative="1" as="geometry"/></mxCell><mxCell id="miscdiagram_B1j_SJlOt_423dyR8UQZy1J" style="edgeStyle=orthogonalEdgeStyle;rounded=1;orthogonalLoop=1;jettySize=auto;html=1;jumpStyle=arc;jumpSize=8;entryX=0.5;entryY=0;entryDx=0;entryDy=0;entryPerimeter=0;" edge="1" parent="miscdiagram_B1j_SJlOt_233dyR8UQaYAk" source="miscdiagram_B1j_SJlOt_283dyR8UQOgOF" target="miscdiagram_B1j_SJlOt_313dyR8UQ7wGu"><mxGeometry relative="1" as="geometry"><Array as="points"><mxPoint x="258" y="464"/><mxPoint x="384" y="464"/><mxPoint x="384" y="348"/></Array></mxGeometry></mxCell><mxCell id="miscdiagram_B1j_SJlOt_433dyR8UQRlHU" style="edgeStyle=orthogonalEdgeStyle;rounded=1;orthogonalLoop=1;jettySize=auto;html=1;jumpStyle=arc;jumpSize=8;entryX=0.5;entryY=0;entryDx=0;entryDy=0;entryPerimeter=0;" edge="1" parent="miscdiagram_B1j_SJlOt_233dyR8UQaYAk" source="miscdiagram_B1j_SJlOt_303dyR8UQFwSX" target="miscdiagram_B1j_SJlOt_313dyR8UQ7wGu"><mxGeometry relative="1" as="geometry"/></mxCell><mxCell id="miscdiagram_B1j_SJlOt_443dyR8UQL97q" style="edgeStyle=orthogonalEdgeStyle;rounded=1;orthogonalLoop=1;jettySize=auto;html=1;jumpStyle=arc;jumpSize=8;entryX=0.25;entryY=0;entryDx=0;entryDy=0;entryPerimeter=0;" edge="1" parent="miscdiagram_B1j_SJlOt_233dyR8UQaYAk" source="miscdiagram_B1j_SJlOt_283dyR8UQOgOF" target="miscdiagram_B1j_SJlOt_323dyR8UQu4Fc"><mxGeometry relative="1" as="geometry"/></mxCell><mxCell id="miscdiagram_B1j_SJlOt_453dyR8UQbBjg" style="edgeStyle=orthogonalEdgeStyle;rounded=1;orthogonalLoop=1;jettySize=auto;html=1;jumpStyle=arc;jumpSize=8;entryX=1;entryY=0.5;entryDx=0;entryDy=0;entryPerimeter=0;" edge="1" parent="miscdiagram_B1j_SJlOt_233dyR8UQaYAk" source="miscdiagram_B1j_SJlOt_323dyR8UQu4Fc" target="miscdiagram_B1j_SJlOt_313dyR8UQ7wGu"><mxGeometry relative="1" as="geometry"/></mxCell><mxCell id="miscdiagram_B1j_SJlOt_463dyR8UQHbcD" style="edgeStyle=orthogonalEdgeStyle;rounded=1;orthogonalLoop=1;jettySize=auto;html=1;jumpStyle=arc;jumpSize=8;entryX=1;entryY=0.6;entryDx=0;entryDy=0;entryPerimeter=0;" edge="1" parent="miscdiagram_B1j_SJlOt_233dyR8UQaYAk" source="miscdiagram_B1j_SJlOt_333dyR8UQqFrO" target="miscdiagram_B1j_SJlOt_273dyR8UQ8cT9"><mxGeometry relative="1" as="geometry"><Array as="points"><mxPoint x="584" y="488"/><mxPoint x="342" y="488"/></Array></mxGeometry></mxCell><mxCell id="miscdiagram_B1j_SJlOt_473dyR8UQUaPQ" style="edgeStyle=orthogonalEdgeStyle;rounded=1;orthogonalLoop=1;jettySize=auto;html=1;jumpStyle=arc;jumpSize=8;" edge="1" parent="miscdiagram_B1j_SJlOt_233dyR8UQaYAk" source="miscdiagram_B1j_SJlOt_343dyR8UQKq7G" target="miscdiagram_B1j_SJlOt_333dyR8UQqFrO"><mxGeometry relative="1" as="geometry"/></mxCell><mxCell id="miscdiagram_B1j_SJlOt_483dyR8UQfR3b" style="edgeStyle=orthogonalEdgeStyle;rounded=1;orthogonalLoop=1;jettySize=auto;html=1;jumpStyle=arc;jumpSize=8;entryX=0.7;entryY=1;entryDx=0;entryDy=0;entryPerimeter=0;" edge="1" parent="miscdiagram_B1j_SJlOt_233dyR8UQaYAk" source="miscdiagram_B1j_SJlOt_353dyR8UQ52sK" target="miscdiagram_B1j_SJlOt_273dyR8UQ8cT9"><mxGeometry relative="1" as="geometry"><Array as="points"><mxPoint x="848" y="172"/><mxPoint x="848" y="440"/><mxPoint x="299" y="440"/></Array></mxGeometry></mxCell><mxCell id="miscdiagram_B1j_SJlOt_493dyR8UQmQN6" style="edgeStyle=orthogonalEdgeStyle;rounded=1;orthogonalLoop=1;jettySize=auto;html=1;jumpStyle=arc;jumpSize=8;entryX=1;entryY=0.5;entryDx=0;entryDy=0;entryPerimeter=0;" edge="1" parent="miscdiagram_B1j_SJlOt_233dyR8UQaYAk" source="miscdiagram_B1j_SJlOt_363dyR8UQkNWK" target="miscdiagram_B1j_SJlOt_323dyR8UQu4Fc"><mxGeometry relative="1" as="geometry"/></mxCell><mxCell id="miscdiagram_B1j_SJlOt_503dyR8UQsR0V" style="edgeStyle=orthogonalEdgeStyle;rounded=1;orthogonalLoop=1;jettySize=auto;html=1;jumpStyle=arc;jumpSize=8;entryX=0.7;entryY=0;entryDx=0;entryDy=0;entryPerimeter=0;" edge="1" parent="miscdiagram_B1j_SJlOt_233dyR8UQaYAk" source="miscdiagram_B1j_SJlOt_353dyR8UQ52sK" target="miscdiagram_B1j_SJlOt_363dyR8UQkNWK"><mxGeometry relative="1" as="geometry"/></mxCell><UserObject placeholders="1" label="&lt;span style=&quot;font-family: &amp;#34;ibm plex sans&amp;#34;&quot;&gt;OpenShift 4.7-4.8 Prod Cluster&lt;/span&gt;" Icon-Name="logo--openshift" id="miscdiagram_B1j_SJlOt_513dyR8UQyjKj"><mxCell style="shape=mxgraph.ibm2mondrian.base;shapeType=pg;shapeLayout=expanded;colorFamily=green;colorBackground=noColor:noColor;strokeWidth=1;html=1;whiteSpace=wrap;metaEdit=1;collapsible=0;recursiveResize=0;expand=0;fontFamily=IBM Plex Sans SmBld;fontColor=#000000;fontSize=14;image=;verticalAlign=middle;align=left;spacing=0;spacingLeft=16;spacingRight=16;spacingTop=0;spacingBottom=0;container=1" vertex="1" parent="1"><mxGeometry x="952" y="24" width="616" height="696" as="geometry"/></mxCell></UserObject><UserObject placeholders="1" label="Prod Namespace" Icon-Name="border--none" _id="userobject_365Ft8IL3wn" id="miscdiagram_B1j_SJlOt_523dyR8UQNp1R"><mxCell style="shape=mxgraph.ibm2mondrian.base;shapeType=lg;shapeLayout=expanded;colorFamily=green;colorBackground=noColor:noColor;html=1;whiteSpace=wrap;metaEdit=1;strokeWidth=1;collapsible=0;recursiveResize=0;expand=0;fontFamily=IBM Plex Sans;fontColor=#000000;fontSize=14;image=;verticalAlign=middle;align=left;spacing=0;spacingLeft=12;spacingRight=16;spacingTop=0;spacingBottom=0;container=1" vertex="1" parent="miscdiagram_B1j_SJlOt_513dyR8UQyjKj"><mxGeometry x="20" y="48" width="576" height="624" as="geometry"/></mxCell></UserObject><UserObject placeholders="1" label="CI/CD Deployment" Icon-Name="cube" _id="userobject_366DO4qoXqF" id="miscdiagram_B1j_SJlOt_533dyR8UQ0ANk"><mxCell style="shape=mxgraph.ibm2mondrian.base;shapeType=lg;shapeLayout=expanded;colorFamily=green;colorBackground=noColor:noColor;html=1;whiteSpace=wrap;metaEdit=1;strokeWidth=1;collapsible=0;recursiveResize=0;expand=0;fontFamily=IBM Plex Sans;fontColor=#000000;fontSize=14;image=;verticalAlign=middle;align=left;spacing=0;spacingLeft=12;spacingRight=16;spacingTop=0;spacingBottom=0;container=1" vertex="1" parent="miscdiagram_B1j_SJlOt_523dyR8UQNp1R"><mxGeometry x="24" y="56" width="145" height="64" as="geometry"/></mxCell></UserObject><UserObject placeholders="1" label="Business Automation Navigator" Icon-Name="cube" _id="userobject_36PaJ0GuBQ8" id="miscdiagram_B1j_SJlOt_543dyR8UQ3KkY"><mxCell style="shape=mxgraph.ibm2mondrian.base;shapeType=lg;shapeLayout=expanded;colorFamily=green;colorBackground=noColor:noColor;html=1;whiteSpace=wrap;metaEdit=1;strokeWidth=1;collapsible=0;recursiveResize=0;expand=0;fontFamily=IBM Plex Sans;fontColor=#000000;fontSize=14;image=;verticalAlign=middle;align=left;spacing=0;spacingLeft=12;spacingRight=16;spacingTop=0;spacingBottom=0;container=1" vertex="1" parent="miscdiagram_B1j_SJlOt_523dyR8UQNp1R"><mxGeometry x="185" y="56" width="144" height="64" as="geometry"/></mxCell></UserObject><UserObject placeholders="1" label="Application Engine" Icon-Name="cube" _id="userobject_36PaF0EsXTF" id="miscdiagram_B1j_SJlOt_553dyR8UQn4V8"><mxCell style="shape=mxgraph.ibm2mondrian.base;shapeType=lg;shapeLayout=expanded;colorFamily=green;colorBackground=noColor:noColor;html=1;whiteSpace=wrap;metaEdit=1;strokeWidth=1;collapsible=0;recursiveResize=0;expand=0;fontFamily=IBM Plex Sans;fontColor=#000000;fontSize=14;image=;verticalAlign=middle;align=left;spacing=0;spacingLeft=12;spacingRight=16;spacingTop=0;spacingBottom=0;container=1" vertex="1" parent="miscdiagram_B1j_SJlOt_523dyR8UQNp1R"><mxGeometry x="185" y="152" width="144" height="64" as="geometry"/></mxCell></UserObject><UserObject placeholders="1" label="Deployment Service" Icon-Name="cube" _id="userobject_36Pax4GzTqo" id="miscdiagram_B1j_SJlOt_563dyR8UQNd9C"><mxCell style="shape=mxgraph.ibm2mondrian.base;shapeType=lg;shapeLayout=expanded;colorFamily=green;colorBackground=noColor:noColor;html=1;whiteSpace=wrap;metaEdit=1;strokeWidth=1;collapsible=0;recursiveResize=0;expand=0;fontFamily=IBM Plex Sans;fontColor=#000000;fontSize=14;image=;verticalAlign=middle;align=left;spacing=0;spacingLeft=12;spacingRight=16;spacingTop=0;spacingBottom=0;container=1" vertex="1" parent="miscdiagram_B1j_SJlOt_523dyR8UQNp1R"><mxGeometry x="24" y="152" width="144" height="64" as="geometry"/></mxCell></UserObject><UserObject placeholders="1" label="User Management Service" Icon-Name="cube" _id="userobject_366DO4ri27P" id="miscdiagram_B1j_SJlOt_573dyR8UQUmuE"><mxCell style="shape=mxgraph.ibm2mondrian.base;shapeType=lg;shapeLayout=expanded;colorFamily=green;colorBackground=noColor:noColor;html=1;whiteSpace=wrap;metaEdit=1;strokeWidth=1;collapsible=0;recursiveResize=0;expand=0;fontFamily=IBM Plex Sans;fontColor=#000000;fontSize=14;image=;verticalAlign=middle;align=left;spacing=0;spacingLeft=12;spacingRight=16;spacingTop=0;spacingBottom=0;container=1" vertex="1" parent="miscdiagram_B1j_SJlOt_523dyR8UQNp1R"><mxGeometry x="20" y="264" width="152" height="64" as="geometry"/></mxCell></UserObject><UserObject placeholders="1" label="ViewOne Service" Icon-Name="cube" _id="userobject_36PaRVQhEr2" id="miscdiagram_B1j_SJlOt_583dyR8UQDez9"><mxCell style="shape=mxgraph.ibm2mondrian.base;shapeType=lg;shapeLayout=expanded;colorFamily=green;colorBackground=noColor:noColor;html=1;whiteSpace=wrap;metaEdit=1;strokeWidth=1;collapsible=0;recursiveResize=0;expand=0;fontFamily=IBM Plex Sans;fontColor=#000000;fontSize=14;image=;verticalAlign=middle;align=left;spacing=0;spacingLeft=12;spacingRight=16;spacingTop=0;spacingBottom=0;container=1" vertex="1" parent="miscdiagram_B1j_SJlOt_523dyR8UQNp1R"><mxGeometry x="209" y="344" width="144" height="64" as="geometry"/></mxCell></UserObject><UserObject placeholders="1" label="GraphQL" Icon-Name="cube" _id="userobject_36PaVbv4a5x" id="miscdiagram_B1j_SJlOt_593dyR8UQr5lZ"><mxCell style="shape=mxgraph.ibm2mondrian.base;shapeType=lg;shapeLayout=expanded;colorFamily=green;colorBackground=noColor:noColor;html=1;whiteSpace=wrap;metaEdit=1;strokeWidth=1;collapsible=0;recursiveResize=0;expand=0;fontFamily=IBM Plex Sans;fontColor=#000000;fontSize=14;image=;verticalAlign=middle;align=left;spacing=0;spacingLeft=12;spacingRight=16;spacingTop=0;spacingBottom=0;container=1" vertex="1" parent="miscdiagram_B1j_SJlOt_523dyR8UQNp1R"><mxGeometry x="385" y="344" width="144" height="64" as="geometry"/></mxCell></UserObject><UserObject placeholders="1" label="CPE" Icon-Name="cube" _id="userobject_36Pb6mAavoH" id="miscdiagram_B1j_SJlOt_603dyR8UQSTKk"><mxCell style="shape=mxgraph.ibm2mondrian.base;shapeType=lg;shapeLayout=expanded;colorFamily=green;colorBackground=noColor:noColor;html=1;whiteSpace=wrap;metaEdit=1;strokeWidth=1;collapsible=0;recursiveResize=0;expand=0;fontFamily=IBM Plex Sans;fontColor=#000000;fontSize=14;image=;verticalAlign=middle;align=left;spacing=0;spacingLeft=12;spacingRight=16;spacingTop=0;spacingBottom=0;container=1" vertex="1" parent="miscdiagram_B1j_SJlOt_523dyR8UQNp1R"><mxGeometry x="385" y="448" width="144" height="64" as="geometry"/></mxCell></UserObject><UserObject placeholders="1" label="Content Analyzer Service" Icon-Name="cube" _id="userobject_36Pb4qC6c3a" id="miscdiagram_B1j_SJlOt_613dyR8UQVZmL"><mxCell style="shape=mxgraph.ibm2mondrian.base;shapeType=lg;shapeLayout=expanded;colorFamily=green;colorBackground=noColor:noColor;html=1;whiteSpace=wrap;metaEdit=1;strokeWidth=1;collapsible=0;recursiveResize=0;expand=0;fontFamily=IBM Plex Sans;fontColor=#000000;fontSize=14;image=;verticalAlign=middle;align=left;spacing=0;spacingLeft=12;spacingRight=16;spacingTop=0;spacingBottom=0;container=1" vertex="1" parent="miscdiagram_B1j_SJlOt_523dyR8UQNp1R"><mxGeometry x="113" y="432" width="144" height="64" as="geometry"/></mxCell></UserObject><mxCell id="miscdiagram_B1j_SJlOt_623dyR8UQSyaa" style="edgeStyle=orthogonalEdgeStyle;rounded=1;orthogonalLoop=1;jettySize=auto;html=1;jumpStyle=arc;jumpSize=8;entryX=1;entryY=0.5;entryDx=0;entryDy=0;entryPerimeter=0;" edge="1" parent="miscdiagram_B1j_SJlOt_523dyR8UQNp1R" source="miscdiagram_B1j_SJlOt_543dyR8UQ3KkY" target="miscdiagram_B1j_SJlOt_553dyR8UQn4V8"><mxGeometry relative="1" as="geometry"/></mxCell><mxCell id="miscdiagram_B1j_SJlOt_633dyR8UQFLMH" style="edgeStyle=orthogonalEdgeStyle;rounded=1;orthogonalLoop=1;jettySize=auto;html=1;jumpStyle=arc;jumpSize=8;entryX=0.5;entryY=0;entryDx=0;entryDy=0;entryPerimeter=0;" edge="1" parent="miscdiagram_B1j_SJlOt_523dyR8UQNp1R" source="miscdiagram_B1j_SJlOt_533dyR8UQ0ANk" target="miscdiagram_B1j_SJlOt_563dyR8UQNd9C"><mxGeometry relative="1" as="geometry"/></mxCell><mxCell id="miscdiagram_B1j_SJlOt_643dyR8URfvrv" style="edgeStyle=orthogonalEdgeStyle;rounded=1;orthogonalLoop=1;jettySize=auto;html=1;jumpStyle=arc;jumpSize=8;entryX=0.5;entryY=0;entryDx=0;entryDy=0;entryPerimeter=0;" edge="1" parent="miscdiagram_B1j_SJlOt_523dyR8UQNp1R" source="miscdiagram_B1j_SJlOt_563dyR8UQNd9C" target="miscdiagram_B1j_SJlOt_573dyR8UQUmuE"><mxGeometry relative="1" as="geometry"/></mxCell><mxCell id="miscdiagram_B1j_SJlOt_653dyR8URpJMf" style="edgeStyle=orthogonalEdgeStyle;rounded=1;orthogonalLoop=1;jettySize=auto;html=1;jumpStyle=arc;jumpSize=8;" edge="1" parent="miscdiagram_B1j_SJlOt_523dyR8UQNp1R" source="miscdiagram_B1j_SJlOt_553dyR8UQn4V8" target="miscdiagram_B1j_SJlOt_583dyR8UQDez9"><mxGeometry relative="1" as="geometry"/></mxCell><mxCell id="miscdiagram_B1j_SJlOt_663dyR8URQRzS" style="edgeStyle=orthogonalEdgeStyle;rounded=1;orthogonalLoop=1;jettySize=auto;html=1;jumpStyle=arc;jumpSize=8;entryX=0;entryY=0.5;entryDx=0;entryDy=0;entryPerimeter=0;" edge="1" parent="miscdiagram_B1j_SJlOt_523dyR8UQNp1R" source="miscdiagram_B1j_SJlOt_583dyR8UQDez9" target="miscdiagram_B1j_SJlOt_593dyR8UQr5lZ"><mxGeometry relative="1" as="geometry"/></mxCell><mxCell id="miscdiagram_B1j_SJlOt_673dyR8URBmS6" style="edgeStyle=orthogonalEdgeStyle;rounded=1;orthogonalLoop=1;jettySize=auto;html=1;jumpStyle=arc;jumpSize=8;entryX=0.5;entryY=0;entryDx=0;entryDy=0;entryPerimeter=0;" edge="1" parent="miscdiagram_B1j_SJlOt_523dyR8UQNp1R" source="miscdiagram_B1j_SJlOt_593dyR8UQr5lZ" target="miscdiagram_B1j_SJlOt_603dyR8UQSTKk"><mxGeometry relative="1" as="geometry"/></mxCell><mxCell id="miscdiagram_B1j_SJlOt_683dyR8UREtCG" style="edgeStyle=orthogonalEdgeStyle;rounded=1;orthogonalLoop=1;jettySize=auto;html=1;jumpStyle=arc;jumpSize=8;" edge="1" parent="miscdiagram_B1j_SJlOt_523dyR8UQNp1R" source="miscdiagram_B1j_SJlOt_553dyR8UQn4V8" target="miscdiagram_B1j_SJlOt_613dyR8UQVZmL"><mxGeometry relative="1" as="geometry"/></mxCell></root></mxGraphModel>